<?xml version="1.0" encoding="utf-8"?>
<!-- Generator: Adobe Illustrator 14.0.0, SVG Export Plug-In . SVG Version: 6.00 Build 43363)  -->
<svg version="1.2" baseProfile="tiny" id="Layer_1" xmlns="http://www.w3.org/2000/svg" xmlns:xlink="http://www.w3.org/1999/xlink"
	 x="0px" y="0px" width="236.013px" height="236.013px" viewBox="0 0 236.013 236.013" xml:space="preserve">
<g>
	<path fill="#8DC63F" stroke="#FFFFFF" stroke-width="3" d="M182.004,31.743v24.642h0.002V81.03h0.002v24.645h0.039l0,0v24.646
		h0.002v24.646v24.646h-0.002v24.646v1.363c0.027-0.02,0.053-0.039,0.08-0.059v-1.299v-24.648h0.004v-24.646v-24.646v-0.002V105.68
		v-0.001h24.645v-0.001h19.055c0,0,0,0,0-0.001h-19.096h-0.002h-24.645V81.037v-0.002V56.391h-0.002V31.747v-0.002v-1.326
		c-0.027-0.02-0.055-0.04-0.082-0.06v1.381V31.743z"/>
	<polygon fill="#8DC63F" stroke="#FFFFFF" stroke-width="3" points="132.709,31.741 132.709,56.385 132.711,56.385 132.711,81.029 
		132.711,105.673 132.715,105.673 132.715,81.032 132.715,81.03 132.715,56.387 132.715,56.385 132.715,31.743 132.715,31.741 
		132.715,10.476 132.709,10.475 132.709,31.74 	"/>
	<polygon fill="#8DC63F" stroke="#FFFFFF" stroke-width="3" points="132.756,179.613 132.758,179.613 132.758,154.966 
		132.758,130.322 132.756,130.322 132.756,105.677 132.756,105.675 132.754,105.675 132.754,130.319 132.754,154.966 
		132.754,179.612 132.752,179.612 132.752,204.259 132.752,225.53 132.756,225.53 132.756,204.259 	"/>
	<path fill="#8DC63F" stroke="#FFFFFF" stroke-width="3" d="M9.523,115.008c-0.027,0.996-0.043,1.996-0.043,2.999
		c0,1.002,0.016,2.002,0.043,2.999V115.008z"/>
	<polygon fill="#8DC63F" stroke="#FFFFFF" stroke-width="3" points="34.125,81.035 34.125,105.678 34.168,105.678 34.168,130.323 
		34.168,154.971 34.168,179.616 34.168,186.921 34.17,186.925 34.17,179.616 34.172,179.616 34.172,154.968 34.172,130.323 
		34.172,130.322 34.172,105.678 34.172,105.677 34.131,105.677 34.131,81.033 34.131,81.032 34.131,56.389 34.129,56.389 
		34.129,49.14 34.125,49.143 34.125,56.389 	"/>
	<polygon fill="#8DC63F" stroke="#FFFFFF" stroke-width="3" points="83.422,105.673 83.422,105.677 83.463,105.677 83.463,105.675 
		83.463,105.674 108.107,105.674 108.107,105.673 108.066,105.673 108.064,105.673 	"/>
	<rect x="83.42" y="56.386" fill="#8DC63F" stroke="#FFFFFF" stroke-width="3" width="0" height="0.001"/>
	<path fill="#8DC63F" stroke="#FFFFFF" stroke-width="3" d="M182.004,31.74v-1.381c-7.537-5.513-15.809-10.079-24.645-13.519v14.9
		H182.004z"/>
	<polygon fill="#8DC63F" stroke="#FFFFFF" stroke-width="3" points="157.359,56.385 182.004,56.385 182.004,31.743 182.004,31.74 
		157.359,31.74 157.359,31.741 157.359,31.743 	"/>
	<polygon fill="#8DC63F" stroke="#FFFFFF" stroke-width="3" points="157.359,81.03 157.363,81.03 182.006,81.03 182.006,56.385 
		182.004,56.385 157.359,56.385 	"/>
	<polygon fill="#8DC63F" stroke="#FFFFFF" stroke-width="3" points="157.363,105.675 157.402,105.675 157.402,105.675 
		182.008,105.675 182.008,81.03 182.006,81.03 157.363,81.03 	"/>
	<path fill="#8DC63F" stroke="#FFFFFF" stroke-width="3" d="M157.359,31.741L157.359,31.741V16.84
		c-7.814-3.042-16.07-5.202-24.645-6.364v21.265H157.359z"/>
	<polygon fill="#8DC63F" stroke="#FFFFFF" stroke-width="3" points="157.359,31.743 157.359,31.741 132.715,31.741 132.715,31.743 
		132.715,56.385 157.359,56.385 	"/>
	<polygon fill="#8DC63F" stroke="#FFFFFF" stroke-width="3" points="157.359,56.385 132.715,56.385 132.715,56.387 132.715,81.03 
		157.359,81.03 	"/>
	<polygon fill="#8DC63F" stroke="#FFFFFF" stroke-width="3" points="132.754,105.673 132.754,105.675 132.756,105.675 
		132.756,105.675 157.363,105.675 157.363,81.03 157.359,81.03 132.715,81.03 132.715,81.032 132.715,105.673 132.752,105.673 	"/>
	<path fill="#8DC63F" stroke="#FFFFFF" stroke-width="3" d="M132.709,31.74V10.475c-4.809-0.651-9.715-0.995-14.703-0.995
		c-3.352,0-6.666,0.16-9.941,0.458V31.74H132.709z"/>
	<polygon fill="#8DC63F" stroke="#FFFFFF" stroke-width="3" points="108.064,56.385 108.066,56.385 132.709,56.385 132.709,31.741 
		132.709,31.74 108.064,31.74 108.064,31.741 	"/>
	<polygon fill="#8DC63F" stroke="#FFFFFF" stroke-width="3" points="108.066,81.029 132.711,81.029 132.711,56.385 132.709,56.385 
		108.066,56.385 	"/>
	<polygon fill="#8DC63F" stroke="#FFFFFF" stroke-width="3" points="108.066,105.673 108.107,105.673 132.711,105.673 
		132.711,81.029 108.066,81.029 	"/>
	<path fill="#8DC63F" stroke="#FFFFFF" stroke-width="3" d="M108.064,31.74V9.938c-8.539,0.776-16.793,2.535-24.645,5.173v16.63
		H108.064z"/>
	<polygon fill="#8DC63F" stroke="#FFFFFF" stroke-width="3" points="83.42,56.386 83.42,56.386 83.42,56.385 108.064,56.385 
		108.064,31.741 108.064,31.74 83.42,31.74 83.42,31.743 83.42,31.745 	"/>
	<polygon fill="#8DC63F" stroke="#FFFFFF" stroke-width="3" points="83.422,56.387 83.422,81.029 108.064,81.029 108.066,81.029 
		108.066,56.385 108.064,56.385 83.42,56.385 83.42,56.386 83.42,56.387 	"/>
	<polygon fill="#253F1B" stroke="#FFFFFF" stroke-width="3" points="83.422,81.029 83.422,81.032 83.422,105.673 108.064,105.673 
		108.066,105.673 108.066,81.029 108.064,81.029 	"/>
	<path fill="#8DC63F" stroke="#FFFFFF" stroke-width="3" d="M83.42,31.743V31.74V15.11c-8.77,2.947-17.037,6.986-24.645,11.952
		v4.681H83.42z"/>
	<polygon fill="#8DC63F" stroke="#FFFFFF" stroke-width="3" points="83.42,56.387 83.42,56.386 83.42,31.745 83.42,31.743 
		58.775,31.743 58.775,31.743 58.775,31.745 58.775,56.387 58.775,56.387 	"/>
	<polygon fill="#8DC63F" stroke="#FFFFFF" stroke-width="3" points="83.422,81.029 83.422,56.387 83.42,56.387 83.42,56.387 
		58.775,56.387 58.775,81.032 83.422,81.032 	"/>
	<polygon fill="#253F1B" stroke="#FFFFFF" stroke-width="3" points="83.422,105.673 83.422,81.032 58.775,81.032 58.775,105.677 
		58.816,105.677 58.818,105.677 58.818,105.677 83.422,105.677 	"/>
	<path fill="#8DC63F" stroke="#FFFFFF" stroke-width="3" d="M58.775,31.743v-4.681c-2.268,1.479-4.475,3.042-6.619,4.681
		L58.775,31.743L58.775,31.743z"/>
	<path fill="#8DC63F" stroke="#FFFFFF" stroke-width="3" d="M34.131,56.389v-0.001h24.645V31.745v-0.001h-6.619
		C45.5,36.833,39.445,42.671,34.129,49.14v7.249H34.131z"/>
	<polygon fill="#8DC63F" stroke="#FFFFFF" stroke-width="3" points="58.775,56.387 58.775,56.387 34.131,56.387 34.131,56.389 
		34.131,81.032 58.775,81.032 	"/>
	<polygon fill="#8DC63F" stroke="#FFFFFF" stroke-width="3" points="58.775,105.677 58.775,81.032 34.131,81.032 34.131,81.033 
		34.131,105.677 34.172,105.677 34.172,105.677 	"/>
	<path fill="#8DC63F" stroke="#FFFFFF" stroke-width="3" d="M34.125,49.143c-1.918,2.335-3.738,4.754-5.459,7.246h5.459V49.143z"/>
	<path fill="#8DC63F" stroke="#FFFFFF" stroke-width="3" d="M34.125,56.389h-5.459c-5.234,7.574-9.533,15.843-12.721,24.646h18.18
		V56.389z"/>
	<path fill="#8DC63F" stroke="#FFFFFF" stroke-width="3" d="M34.125,81.035h-18.18c-2.84,7.834-4.797,16.088-5.764,24.644h23.943
		V81.035z"/>
	<path fill="#8DC63F" stroke="#FFFFFF" stroke-width="3" d="M207.348,56.391c-0.205-0.296-0.408-0.594-0.615-0.888v0.888H207.348z"
		/>
	<path fill="#8DC63F" stroke="#FFFFFF" stroke-width="3" d="M206.732,81.035h0.002h13.332c-3.188-8.802-7.486-17.07-12.719-24.644
		h-0.615V81.035z"/>
	<path fill="#253F1B" stroke="#FFFFFF" stroke-width="3" d="M206.734,105.677h19.096c-0.967-8.555-2.924-16.809-5.764-24.643
		h-13.332V105.677z"/>
	<path fill="#8DC63F" stroke="#FFFFFF" stroke-width="3" d="M183.857,31.745c-0.586-0.448-1.176-0.89-1.771-1.326v1.326H183.857z"/>
	<path fill="#8DC63F" stroke="#FFFFFF" stroke-width="3" d="M182.086,31.747v24.644h0.002h24.645v-0.888
		c-6.377-9.035-14.1-17.049-22.875-23.758h-1.771V31.747z"/>
	<rect x="182.088" y="56.391" fill="#8DC63F" stroke="#FFFFFF" stroke-width="3" width="24.645" height="24.644"/>
	<polygon fill="#8DC63F" stroke="#FFFFFF" stroke-width="3" points="206.732,81.035 182.088,81.035 182.088,81.037 182.088,105.677 
		206.732,105.677 206.734,105.677 206.734,81.035 	"/>
	<polygon fill="#8DC63F" stroke="#FFFFFF" stroke-width="3" points="157.404,179.613 157.402,179.613 157.402,204.259 
		182.047,204.259 182.047,179.612 157.404,179.612 	"/>
	<path fill="#8DC63F" stroke="#FFFFFF" stroke-width="3" d="M157.402,204.259v14.896c8.836-3.444,17.107-8.016,24.645-13.533v-1.363
		H157.402z"/>
	<polygon fill="#8DC63F" stroke="#FFFFFF" stroke-width="3" points="157.402,130.32 157.404,130.32 182.047,130.32 182.047,105.675 
		182.047,105.675 182.008,105.675 157.402,105.675 	"/>
	<polygon fill="#253F1B" stroke="#FFFFFF" stroke-width="3" points="157.404,154.966 182.049,154.966 182.049,130.32 
		182.047,130.32 157.404,130.32 	"/>
	<polygon fill="#8DC63F" stroke="#FFFFFF" stroke-width="3" points="157.404,179.612 182.047,179.612 182.049,179.612 
		182.049,154.966 157.404,154.966 	"/>
	<polygon fill="#8DC63F" stroke="#FFFFFF" stroke-width="3" points="132.758,179.613 132.756,179.613 132.756,204.259 
		157.402,204.259 157.402,179.613 	"/>
	<path fill="#8DC63F" stroke="#FFFFFF" stroke-width="3" d="M132.756,204.259v21.271c8.574-1.166,16.83-3.328,24.646-6.375v-14.896
		H132.756z"/>
	<polygon fill="#8DC63F" stroke="#FFFFFF" stroke-width="3" points="157.402,130.32 157.402,105.675 157.402,105.675 
		157.363,105.675 132.756,105.675 132.756,105.675 132.756,105.677 132.756,130.322 132.758,130.322 132.758,130.32 	"/>
	<polygon fill="#253F1B" stroke="#FFFFFF" stroke-width="3" points="157.404,154.966 157.404,130.32 157.402,130.32 132.758,130.32 
		132.758,130.322 132.758,154.966 157.402,154.966 	"/>
	<polygon fill="#8DC63F" stroke="#FFFFFF" stroke-width="3" points="157.404,179.613 157.404,179.612 157.404,154.966 
		157.402,154.966 132.758,154.966 132.758,179.613 157.402,179.613 	"/>
	<polygon fill="#8DC63F" stroke="#FFFFFF" stroke-width="3" points="108.107,179.612 108.107,204.259 132.752,204.259 
		132.752,179.612 108.109,179.612 	"/>
	<path fill="#8DC63F" stroke="#FFFFFF" stroke-width="3" d="M108.107,204.259v21.818c3.26,0.295,6.561,0.455,9.898,0.455
		c5.002,0,9.924-0.346,14.746-1.002v-21.271H108.107z"/>
	<polygon fill="#253F1B" stroke="#FFFFFF" stroke-width="3" points="108.107,105.674 108.109,105.674 108.109,130.319 
		132.754,130.319 132.754,105.675 132.754,105.673 132.752,105.673 132.715,105.673 132.711,105.673 108.107,105.673 	"/>
	<rect x="108.109" y="130.319" fill="#8DC63F" stroke="#FFFFFF" stroke-width="3" width="24.645" height="24.646"/>
	<polygon fill="#8DC63F" stroke="#FFFFFF" stroke-width="3" points="108.109,154.966 108.109,179.612 132.752,179.612 
		132.754,179.612 132.754,154.966 108.109,154.966 	"/>
	<polygon fill="#8DC63F" stroke="#FFFFFF" stroke-width="3" points="108.104,179.612 83.463,179.612 83.463,179.614 83.463,179.614 
		83.463,204.259 108.107,204.259 108.107,179.612 	"/>
	<path fill="#8DC63F" stroke="#FFFFFF" stroke-width="3" d="M83.463,204.259v0.004v16.652c7.852,2.635,16.105,4.391,24.645,5.162
		v-21.818H83.463z"/>
	<polygon fill="#8DC63F" stroke="#FFFFFF" stroke-width="3" points="83.463,105.675 83.463,105.677 83.463,105.677 83.463,130.319 
		108.107,130.319 108.109,130.319 108.109,105.674 108.107,105.674 83.463,105.674 	"/>
	<polygon fill="#8DC63F" stroke="#FFFFFF" stroke-width="3" points="83.463,130.319 83.463,130.321 83.463,154.966 108.109,154.966 
		108.109,154.966 108.109,130.319 108.107,130.319 	"/>
	<polygon fill="#8DC63F" stroke="#FFFFFF" stroke-width="3" points="83.463,154.968 83.463,179.612 108.104,179.612 
		108.107,179.612 108.109,179.612 108.109,154.966 83.463,154.966 	"/>
	<polygon fill="#8DC63F" stroke="#FFFFFF" stroke-width="3" points="58.818,179.614 58.818,179.616 58.816,179.616 58.816,204.263 
		83.463,204.263 83.463,204.259 83.463,179.614 	"/>
	<path fill="#8DC63F" stroke="#FFFFFF" stroke-width="3" d="M58.816,204.263v4.714c7.609,4.961,15.875,8.996,24.646,11.938v-16.652
		H58.816z"/>
	<polygon fill="#8DC63F" stroke="#FFFFFF" stroke-width="3" points="83.463,130.319 83.463,105.677 83.463,105.677 83.422,105.677 
		58.818,105.677 58.818,130.321 83.463,130.321 	"/>
	<polygon fill="#8DC63F" stroke="#FFFFFF" stroke-width="3" points="83.463,154.966 83.463,130.321 58.818,130.321 58.818,130.322 
		58.818,154.968 83.463,154.968 	"/>
	<polygon fill="#8DC63F" stroke="#FFFFFF" stroke-width="3" points="83.463,179.614 83.463,179.612 83.463,154.968 58.818,154.968 
		58.818,179.614 83.463,179.614 	"/>
	<path fill="#8DC63F" stroke="#FFFFFF" stroke-width="3" d="M58.816,204.263v-24.646H34.172H34.17v7.309
		c5.305,6.445,11.342,12.263,17.979,17.338h6.666H58.816z"/>
	<path fill="#8DC63F" stroke="#FFFFFF" stroke-width="3" d="M58.814,204.263h-6.666c2.16,1.651,4.383,3.225,6.668,4.714v-4.714
		H58.814z"/>
	<polygon fill="#253F1B" stroke="#FFFFFF" stroke-width="3" points="58.818,130.321 58.818,105.677 58.818,105.677 58.816,105.677 
		58.775,105.677 34.172,105.677 34.172,105.677 34.172,105.678 34.172,130.322 58.818,130.322 	"/>
	<polygon fill="#8DC63F" stroke="#FFFFFF" stroke-width="3" points="58.818,154.968 58.818,130.322 34.172,130.322 34.172,130.323 
		34.172,154.968 58.818,154.968 	"/>
	<polygon fill="#8DC63F" stroke="#FFFFFF" stroke-width="3" points="58.818,179.616 58.818,179.614 58.818,154.968 58.818,154.968 
		34.172,154.968 34.172,179.616 58.816,179.616 	"/>
	<path fill="#8DC63F" stroke="#FFFFFF" stroke-width="3" d="M28.662,179.616c1.734,2.513,3.568,4.952,5.506,7.305v-7.305H28.662z"/>
	<path fill="#8DC63F" stroke="#FFFFFF" stroke-width="3" d="M10.18,130.323h23.988v-24.645h-0.043H10.182
		c-0.348,3.073-0.574,6.184-0.658,9.33v5.997C9.607,124.147,9.832,127.253,10.18,130.323z"/>
	<path fill="#253F1B" stroke="#FFFFFF" stroke-width="3" d="M34.168,130.323H10.18c0.967,8.557,2.924,16.812,5.762,24.647h18.227
		V130.323z"/>
	<path fill="#8DC63F" stroke="#FFFFFF" stroke-width="3" d="M34.168,154.971H15.941c3.189,8.802,7.486,17.071,12.721,24.646h5.506
		V154.971z"/>
	<path fill="#8DC63F" stroke="#FFFFFF" stroke-width="3" d="M206.775,179.616v0.831c0.193-0.275,0.383-0.554,0.576-0.831h-0.574
		H206.775z"/>
	<path fill="#8DC63F" stroke="#FFFFFF" stroke-width="3" d="M206.775,105.679h0.002v24.644h19.055
		c0.457-4.043,0.699-8.151,0.699-12.317c0-4.169-0.242-8.281-0.701-12.328L206.775,105.679L206.775,105.679z"/>
	<path fill="#8DC63F" stroke="#FFFFFF" stroke-width="3" d="M206.777,154.97h13.293c2.838-7.835,4.795-16.091,5.762-24.646h-19.055
		V154.97z"/>
	<path fill="#8DC63F" stroke="#FFFFFF" stroke-width="3" d="M206.777,154.971v24.646h0.574c5.232-7.574,9.529-15.844,12.719-24.646
		L206.777,154.971L206.777,154.971z"/>
	<path fill="#8DC63F" stroke="#FFFFFF" stroke-width="3" d="M206.773,179.616h-24.643h-0.004v24.648h1.734
		c8.793-6.725,16.529-14.759,22.914-23.817v-0.831H206.773z"/>
	<path fill="#8DC63F" stroke="#FFFFFF" stroke-width="3" d="M182.127,205.563c0.582-0.428,1.16-0.861,1.734-1.299h-1.734V205.563z"
		/>
	<polygon fill="#253F1B" stroke="#FFFFFF" stroke-width="3" points="206.777,130.323 206.777,105.679 206.775,105.679 
		182.131,105.679 182.131,105.68 182.131,130.323 206.775,130.323 	"/>
	<polygon fill="#8DC63F" stroke="#FFFFFF" stroke-width="3" points="206.777,154.97 206.777,130.323 206.775,130.323 
		182.131,130.323 182.131,130.325 182.131,154.971 206.777,154.971 	"/>
	<polygon fill="#8DC63F" stroke="#FFFFFF" stroke-width="3" points="206.775,179.616 206.777,179.616 206.777,154.971 
		182.131,154.971 182.131,179.616 206.773,179.616 	"/>
	<circle fill="none" stroke="#253F1B" stroke-width="10.4444" cx="118.006" cy="118.007" r="108.525"/>
</g>
</svg>
